P3 
# Created by an image processing program by Nathaniel Sawant and Aiden Cahill for CS3500 at Northeastern University.
5 4 
255 
0 
0 
0 
0 
0 
0 
0 
0 
0 
0 
0 
0 
0 
0 
0 
0 
168 
90 
0 
168 
90 
0 
168 
90 
183 
122 
197 
173 
8 
247 
133 
203 
171 
133 
203 
171 
231 
152 
217 
183 
122 
197 
173 
8 
247 
255 
255 
255 
255 
191 
238 
231 
152 
217 
183 
122 
197 
173 
8 
247 
