P3
# Created by GIMP version 2.10.30 PNM plug-in
5 4
255
0
0
0
0
0
0
0
0
0
0
0
0
0
0
0
173
8
247
183
122
197
0
168
90
0
168
90
0
168
90
173
8
247
183
122
197
231
152
217
133
203
171
133
203
171
173
8
247
183
122
197
231
152
217
255
191
238
255
255
255
