P3
# Created by GIMP version 2.10.30 PNM plug-in
5 4
255
255
255
255
255
255
255
231
231
231
183
183
183
173
173
173
133
133
133
133
133
133
231
231
231
183
183
183
173
173
173
0
0
0
0
0
0
0
0
0
183
183
183
173
173
173
0
0
0
0
0
0
0
0
0
0
0
0
0
0
0